<?xml version="1.0" standalone="no"?>
<!DOCTYPE svg PUBLIC "-//W3C//DTD SVG 20010904//EN"
 "http://www.w3.org/TR/2001/REC-SVG-20010904/DTD/svg10.dtd">
<svg version="1.0" xmlns="http://www.w3.org/2000/svg"
 width="512.000000pt" height="512.000000pt" viewBox="0 0 512.000000 512.000000"
 preserveAspectRatio="xMidYMid meet">

<g transform="translate(0.000000,512.000000) scale(0.100000,-0.100000)"
fill="#000000" stroke="none">
<path d="M1764 4841 c-56 -24 -72 -109 -30 -158 20 -23 32 -28 71 -28 60 0 95
35 95 95 0 70 -72 118 -136 91z"/>
<path d="M1227 4755 c-667 -230 -1136 -815 -1217 -1520 -15 -137 -14 -2876 2
-2910 25 -55 93 -67 223 -40 213 44 404 218 478 435 22 65 22 66 25 917 l3
853 1817 2 c1737 3 1820 4 1882 22 255 73 464 255 555 483 44 109 128 419 122
445 -4 14 -31 50 -61 81 -61 62 -59 55 -75 257 -17 218 -67 387 -122 415 -43
23 -59 19 -168 -36 -113 -56 -228 -139 -311 -223 l-54 -56 -85 0 -84 0 -77 74
c-91 87 -199 162 -312 216 -93 45 -110 48 -155 20 -26 -16 -36 -33 -58 -102
-15 -46 -34 -122 -43 -170 l-17 -87 -120 147 c-207 253 -285 340 -374 418
-114 100 -282 211 -411 273 -110 52 -302 121 -339 121 -34 0 -76 -26 -89 -55
-35 -76 2 -121 136 -163 124 -40 290 -121 411 -202 141 -95 270 -226 523 -534
l230 -280 -46 -42 c-25 -24 -48 -55 -52 -70 -5 -19 9 -84 46 -213 75 -266 124
-365 239 -483 l55 -58 -601 0 -601 0 -18 56 c-36 116 -139 236 -250 290 -53
26 -54 27 -54 71 0 62 -27 187 -57 263 -47 117 -103 201 -203 300 -188 189
-392 269 -654 257 -238 -10 -421 -91 -589 -259 -92 -92 -113 -133 -97 -184 15
-44 45 -64 97 -64 39 0 46 4 95 61 67 76 153 142 242 185 197 95 443 84 634
-28 72 -42 197 -167 240 -240 41 -69 80 -181 88 -254 l7 -54 -137 0 c-145 0
-184 -10 -206 -49 -18 -35 -12 -88 14 -118 l24 -28 204 -5 c218 -6 244 -12
316 -67 32 -24 92 -106 92 -125 0 -5 -411 -7 -912 -6 l-913 3 -57 28 c-122 60
-196 170 -205 307 -10 143 28 374 89 550 80 226 201 414 382 595 193 193 381
311 624 391 59 20 117 45 129 56 66 61 18 170 -74 167 -15 0 -72 -16 -126 -34z
m2588 -842 c39 -26 107 -84 152 -129 45 -45 90 -87 101 -93 26 -14 316 -15
342 -1 10 5 58 49 107 98 81 81 202 172 229 172 15 0 33 -115 43 -271 7 -104
13 -135 36 -186 15 -34 38 -72 51 -84 13 -12 24 -30 24 -39 0 -40 -84 -300
-118 -364 -79 -151 -241 -272 -418 -312 -241 -53 -511 61 -645 273 -39 63 -88
195 -125 339 l-18 71 32 39 c58 72 74 126 83 271 10 158 27 263 43 263 6 0 43
-21 81 -47z m-3552 -1337 c62 -40 150 -72 225 -82 l52 -7 0 -808 c0 -561 -3
-824 -11 -861 -32 -150 -158 -288 -301 -329 l-28 -8 0 1065 c0 585 2 1064 5
1064 2 0 29 -15 58 -34z"/>
<path d="M3864 3440 c-48 -19 -67 -81 -42 -135 16 -36 119 -95 164 -95 46 0
94 45 94 89 0 50 -19 77 -83 115 -62 36 -93 42 -133 26z"/>
<path d="M4490 3420 c-71 -39 -90 -63 -90 -112 0 -52 43 -98 92 -98 39 0 127
48 157 86 36 45 21 113 -30 140 -41 21 -67 17 -129 -16z"/>
<path d="M4174 3116 c-43 -19 -64 -53 -64 -103 0 -37 6 -49 43 -88 38 -39 49
-45 85 -45 93 0 167 126 116 199 -33 46 -118 64 -180 37z"/>
</g>
</svg>
